<svg width="292" height="292" viewBox="0 0 292 292" fill="none" xmlns="http://www.w3.org/2000/svg">
<g clip-path="url(#clip0_54_8)">
<path d="M146 292C226.634 292 292 226.634 292 146C292 65.3664 226.634 0 146 0C65.3664 0 0 65.3664 0 146C0 226.634 65.3664 292 146 292Z" fill="#193A68"/>
<path d="M146.411 85L224.778 194.758L224.649 194.881L146.421 131.765L68.1546 194.9L68 194.821L146.411 85Z" fill="white"/>
<path d="M210.577 200.911C215.103 202.577 219.638 204.218 224.166 205.872C224.198 205.818 224.232 205.765 224.264 205.708L146.402 154.809L68.3154 205.866L68.4385 206.011C72.5347 204.496 76.6372 202.982 80.746 201.47C102.133 193.606 125.04 185.587 146.414 177.697L210.577 200.911Z" fill="white"/>
</g>
<defs>
<clipPath id="clip0_54_8">
<rect width="292" height="292" fill="white"/>
</clipPath>
</defs>
</svg>
